<mxfile host="app.diagrams.net" agent="Mozilla/5.0 (Windows NT 10.0; Win64; x64) AppleWebKit/537.36 (KHTML, like Gecko) Chrome/127.0.0.0 Safari/537.36" version="24.7.6">
  <diagram id="C5RBs43oDa-KdzZeNtuy" name="Page-1">
    <mxGraphModel dx="1027" dy="943" grid="1" gridSize="10" guides="1" tooltips="1" connect="1" arrows="1" fold="1" page="1" pageScale="1" pageWidth="827" pageHeight="1169" math="0" shadow="0">
      <root>
        <mxCell id="WIyWlLk6GJQsqaUBKTNV-0" />
        <mxCell id="WIyWlLk6GJQsqaUBKTNV-1" parent="WIyWlLk6GJQsqaUBKTNV-0" />
        <mxCell id="sPinZLbwI8TbRBxIjGRS-0" value="Ethnicity: White*" style="rounded=1;whiteSpace=wrap;html=1;strokeColor=#6c8ebf;strokeWidth=4;fillColor=#dae8fc;fontSize=14;" parent="WIyWlLk6GJQsqaUBKTNV-1" vertex="1">
          <mxGeometry x="120" y="340" width="280" height="60" as="geometry" />
        </mxCell>
        <mxCell id="sPinZLbwI8TbRBxIjGRS-1" value="Ethnicity: White&lt;div style=&quot;font-size: 14px;&quot;&gt;+&lt;/div&gt;&lt;div style=&quot;font-size: 14px;&quot;&gt;Religion: Christian/No religion&lt;/div&gt;&lt;div style=&quot;font-size: 14px;&quot;&gt;or religion not stated&lt;/div&gt;&lt;div style=&quot;font-size: 14px;&quot;&gt;+&lt;/div&gt;&lt;div style=&quot;font-size: 14px;&quot;&gt;Nationality: All other national identities&lt;br style=&quot;font-size: 14px;&quot;&gt;&lt;/div&gt;" style="rounded=1;whiteSpace=wrap;html=1;strokeColor=#82b366;strokeWidth=4;fillColor=#d5e8d4;fontSize=14;" parent="WIyWlLk6GJQsqaUBKTNV-1" vertex="1">
          <mxGeometry x="440" y="600" width="280" height="150" as="geometry" />
        </mxCell>
        <mxCell id="sPinZLbwI8TbRBxIjGRS-2" value="&lt;div style=&quot;font-size: 14px;&quot;&gt;&lt;div style=&quot;font-size: 14px;&quot;&gt;&lt;span style=&quot;font-size: 14px;&quot; class=&quot;cf01&quot;&gt;&lt;span style=&quot;font-size: 14px; line-height: 107%;&quot;&gt;Ethnicity: White&lt;div style=&quot;font-size: 14px;&quot;&gt;+&lt;/div&gt;&lt;div style=&quot;font-size: 14px;&quot;&gt;Religion: Christian/No religion&lt;/div&gt;&lt;div style=&quot;font-size: 14px;&quot;&gt;or religion not stated&lt;/div&gt;&lt;div style=&quot;font-size: 14px;&quot;&gt;+&lt;/div&gt;&lt;div style=&quot;font-size: 14px;&quot;&gt;Nationality: British/Irish/&lt;/div&gt;&lt;div style=&quot;font-size: 14px;&quot;&gt;Northern Irish only&lt;/div&gt;&lt;/span&gt;&lt;/span&gt;&lt;/div&gt;&lt;/div&gt;" style="rounded=1;whiteSpace=wrap;html=1;strokeColor=#d6b656;strokeWidth=4;fillColor=#fff2cc;fontSize=14;" parent="WIyWlLk6GJQsqaUBKTNV-1" vertex="1">
          <mxGeometry x="120" y="600" width="280" height="150" as="geometry" />
        </mxCell>
        <mxCell id="sPinZLbwI8TbRBxIjGRS-4" value="Ethnicity: White&lt;div style=&quot;font-size: 14px;&quot;&gt;+&lt;/div&gt;&lt;div style=&quot;font-size: 14px;&quot;&gt;Religion: Non-Christian&lt;/div&gt;" style="rounded=1;whiteSpace=wrap;html=1;strokeColor=#82b366;strokeWidth=4;fillColor=#d5e8d4;fontSize=14;" parent="WIyWlLk6GJQsqaUBKTNV-1" vertex="1">
          <mxGeometry x="440" y="440" width="280" height="120" as="geometry" />
        </mxCell>
        <mxCell id="sPinZLbwI8TbRBxIjGRS-5" value="&lt;span style=&quot;font-size: 14px; font-family: Calibri, sans-serif;&quot; lang=&quot;EN-US&quot;&gt;Ethnicity:&lt;br style=&quot;font-size: 14px;&quot;&gt;Other*&lt;/span&gt;" style="rounded=1;whiteSpace=wrap;html=1;strokeColor=#b85450;strokeWidth=4;fillColor=#f8cecc;fontSize=14;" parent="WIyWlLk6GJQsqaUBKTNV-1" vertex="1">
          <mxGeometry x="440" y="340" width="280" height="60" as="geometry" />
        </mxCell>
        <mxCell id="LmXLMxvzvVMeF8M84Yfj-0" value="Ethnicity: White&lt;div style=&quot;font-size: 14px;&quot;&gt;+&lt;/div&gt;&lt;div style=&quot;font-size: 14px;&quot;&gt;Religion: Christian/No religion&lt;br&gt;or religion not stated&lt;/div&gt;" style="rounded=1;whiteSpace=wrap;html=1;strokeColor=#6c8ebf;strokeWidth=4;fillColor=#dae8fc;fontSize=14;" vertex="1" parent="WIyWlLk6GJQsqaUBKTNV-1">
          <mxGeometry x="120" y="440" width="280" height="120" as="geometry" />
        </mxCell>
        <mxCell id="LmXLMxvzvVMeF8M84Yfj-1" value="" style="endArrow=classic;html=1;rounded=0;exitX=0.5;exitY=1;exitDx=0;exitDy=0;fillColor=#dae8fc;strokeColor=#6c8ebf;strokeWidth=2;" edge="1" parent="WIyWlLk6GJQsqaUBKTNV-1" source="sPinZLbwI8TbRBxIjGRS-0" target="LmXLMxvzvVMeF8M84Yfj-0">
          <mxGeometry width="50" height="50" relative="1" as="geometry">
            <mxPoint x="440" y="610" as="sourcePoint" />
            <mxPoint x="490" y="560" as="targetPoint" />
          </mxGeometry>
        </mxCell>
        <mxCell id="LmXLMxvzvVMeF8M84Yfj-2" value="" style="endArrow=classic;html=1;rounded=0;fillColor=#dae8fc;strokeColor=#6c8ebf;strokeWidth=2;exitX=0.5;exitY=1;exitDx=0;exitDy=0;" edge="1" parent="WIyWlLk6GJQsqaUBKTNV-1" source="LmXLMxvzvVMeF8M84Yfj-0" target="sPinZLbwI8TbRBxIjGRS-2">
          <mxGeometry width="50" height="50" relative="1" as="geometry">
            <mxPoint x="320" y="420" as="sourcePoint" />
            <mxPoint x="270" y="450" as="targetPoint" />
          </mxGeometry>
        </mxCell>
        <mxCell id="LmXLMxvzvVMeF8M84Yfj-3" value="" style="endArrow=classic;html=1;rounded=0;fillColor=#dae8fc;strokeColor=#6c8ebf;strokeWidth=2;exitX=0.5;exitY=1;exitDx=0;exitDy=0;entryX=0;entryY=0;entryDx=0;entryDy=0;" edge="1" parent="WIyWlLk6GJQsqaUBKTNV-1" source="sPinZLbwI8TbRBxIjGRS-0" target="sPinZLbwI8TbRBxIjGRS-4">
          <mxGeometry width="50" height="50" relative="1" as="geometry">
            <mxPoint x="270" y="570" as="sourcePoint" />
            <mxPoint x="270" y="610" as="targetPoint" />
          </mxGeometry>
        </mxCell>
        <mxCell id="LmXLMxvzvVMeF8M84Yfj-4" value="" style="endArrow=classic;html=1;rounded=0;fillColor=#dae8fc;strokeColor=#6c8ebf;strokeWidth=2;entryX=0;entryY=0;entryDx=0;entryDy=0;exitX=0.5;exitY=1;exitDx=0;exitDy=0;" edge="1" parent="WIyWlLk6GJQsqaUBKTNV-1" source="LmXLMxvzvVMeF8M84Yfj-0" target="sPinZLbwI8TbRBxIjGRS-1">
          <mxGeometry width="50" height="50" relative="1" as="geometry">
            <mxPoint x="270" y="570" as="sourcePoint" />
            <mxPoint x="430" y="600" as="targetPoint" />
          </mxGeometry>
        </mxCell>
      </root>
    </mxGraphModel>
  </diagram>
</mxfile>
